<?xml version="1.0" encoding="UTF-8"?>
<svg version="1.1" xmlns="http://www.w3.org/2000/svg" width="60" height="56">
<path d="M0 0 C0.73619064 -0.00570007 1.47238129 -0.01140015 2.23088074 -0.01727295 C3.78842741 -0.02671256 5.34599395 -0.03325281 6.90356445 -0.03710938 C9.27395961 -0.04679731 11.64348078 -0.07782175 14.01367188 -0.109375 C15.52994279 -0.11590741 17.04621988 -0.12115695 18.5625 -0.125 C19.26582962 -0.1373468 19.96915924 -0.1496936 20.69380188 -0.16241455 C25.36730902 -0.14149851 28.61529369 0.54106409 32.48046875 3.203125 C35.58646426 7.71336369 35.93583305 11.93798598 35.9140625 17.26953125 C35.91930435 18.02604477 35.9245462 18.78255829 35.9299469 19.56199646 C35.93633958 21.15289081 35.93506595 22.74383259 35.92651367 24.3347168 C35.91798004 26.76241207 35.94683703 29.18776967 35.97851562 31.61523438 C35.98012737 33.16666597 35.97955061 34.7181017 35.9765625 36.26953125 C35.99341347 37.35096153 35.99341347 37.35096153 36.01060486 38.45423889 C35.96199658 41.9828138 35.57380605 44.05267218 33.69946289 47.07397461 C29.13339676 51.45516756 25.30987784 51.50095026 19.13671875 51.46875 C18.33061157 51.47066345 17.52450439 51.4725769 16.69396973 51.47454834 C14.99275398 51.47590694 13.29152775 51.4722332 11.59033203 51.46386719 C8.98967146 51.45316288 6.38970164 51.46377328 3.7890625 51.4765625 C2.13411306 51.47524085 0.47916405 51.47267833 -1.17578125 51.46875 C-2.33998596 51.47482269 -2.33998596 51.47482269 -3.52770996 51.48101807 C-10.37754744 51.42166368 -10.37754744 51.42166368 -13.51953125 49.203125 C-18.33576475 41.94770228 -16.66830196 29.69268781 -16.76953125 21.328125 C-16.79096191 20.32934326 -16.81239258 19.33056152 -16.83447266 18.30151367 C-16.8634743 11.91524349 -16.22420347 7.4712706 -12.01953125 2.390625 C-8.47089592 -0.4187113 -4.28895473 0.02569421 0 0 Z " fill="#B532B8" transform="translate(21.51953125,0.796875)"/>
<path d="M0 0 C1.93166016 0.01740234 1.93166016 0.01740234 3.90234375 0.03515625 C5.19269531 0.04417969 6.48304687 0.05320312 7.8125 0.0625 C8.81152344 0.07410156 9.81054688 0.08570312 10.83984375 0.09765625 C10.83984375 4.38765625 10.83984375 8.67765625 10.83984375 13.09765625 C12.15984375 13.09765625 13.47984375 13.09765625 14.83984375 13.09765625 C14.83984375 8.80765625 14.83984375 4.51765625 14.83984375 0.09765625 C16.48984375 0.09765625 18.13984375 0.09765625 19.83984375 0.09765625 C20.02546875 0.88140625 20.21109375 1.66515625 20.40234375 2.47265625 C21.67946002 5.49141967 21.67946002 5.49141967 25.46484375 6.41015625 C26.57859375 6.63703125 27.69234375 6.86390625 28.83984375 7.09765625 C28.83984375 8.08765625 28.83984375 9.07765625 28.83984375 10.09765625 C25.86984375 9.76765625 22.89984375 9.43765625 19.83984375 9.09765625 C19.83984375 10.08765625 19.83984375 11.07765625 19.83984375 12.09765625 C22.80984375 12.42765625 25.77984375 12.75765625 28.83984375 13.09765625 C27.64084677 16.18079135 26.36283898 19.16045117 24.83984375 22.09765625 C25.49984375 22.09765625 26.15984375 22.09765625 26.83984375 22.09765625 C26.83984375 21.43765625 26.83984375 20.77765625 26.83984375 20.09765625 C27.82984375 20.42765625 28.81984375 20.75765625 29.83984375 21.09765625 C30.5703125 22.9453125 30.5703125 22.9453125 31.02734375 25.16015625 C31.26517578 26.26037109 31.26517578 26.26037109 31.5078125 27.3828125 C31.61738281 27.94871094 31.72695313 28.51460937 31.83984375 29.09765625 C29.42408959 30.30553333 27.88038468 30.22687986 25.18359375 30.23046875 C23.77207031 30.23240234 23.77207031 30.23240234 22.33203125 30.234375 C20.85089844 30.22857422 20.85089844 30.22857422 19.33984375 30.22265625 C18.38335937 30.22652344 17.426875 30.23039062 16.44140625 30.234375 C11.70029465 30.22795073 6.97585779 30.11591319 2.24609375 29.77734375 C1.44494141 29.72046387 0.64378906 29.66358398 -0.18164062 29.60498047 C-2.16015625 29.09765625 -2.16015625 29.09765625 -4.16015625 26.09765625 C-2.78515625 24.59765625 -2.78515625 24.59765625 -1.16015625 23.09765625 C-0.50015625 23.09765625 0.15984375 23.09765625 0.83984375 23.09765625 C1.5269193 20.60700737 1.83984375 18.71879333 1.83984375 16.09765625 C-0.10025147 14.39233302 -0.10025147 14.39233302 -2.16015625 13.09765625 C0.47984375 12.76765625 3.11984375 12.43765625 5.83984375 12.09765625 C5.50984375 11.43765625 5.17984375 10.77765625 4.83984375 10.09765625 C3.54046875 10.11828125 2.24109375 10.13890625 0.90234375 10.16015625 C-0.45181258 10.18165079 -1.80771708 10.16913824 -3.16015625 10.09765625 C-4.16015625 9.09765625 -4.16015625 9.09765625 -4.29296875 7.28515625 C-4.29039063 6.56328125 -4.2878125 5.84140625 -4.28515625 5.09765625 C-4.28773437 4.37578125 -4.2903125 3.65390625 -4.29296875 2.91015625 C-4.05785518 -0.29845253 -3.28213777 0.10142577 0 0 Z " fill="#BA2EAC" transform="translate(19.16015625,21.90234375)"/>
<path d="M0 0 C3.3901403 0.91625413 4.72812957 1.57223184 6.64086914 4.58178711 C8.19903999 8.5005854 8.45054451 11.9152144 8.43359375 16.06640625 C8.4388356 16.82291977 8.44407745 17.57943329 8.44947815 18.35887146 C8.45587083 19.94976581 8.4545972 21.54070759 8.44604492 23.1315918 C8.43751129 25.55928707 8.46636828 27.98464467 8.49804688 30.41210938 C8.49965862 31.96354097 8.49908186 33.5149767 8.49609375 35.06640625 C8.51294472 36.14783653 8.51294472 36.14783653 8.53013611 37.25111389 C8.46321391 42.10913355 7.39341781 44.54599295 4 48 C2.68 47.67 1.36 47.34 0 47 C-0.12375 46.030625 -0.2475 45.06125 -0.375 44.0625 C-0.58125 43.051875 -0.7875 42.04125 -1 41 C-1.99 40.505 -1.99 40.505 -3 40 C-3 40.66 -3 41.32 -3 42 C-3.66 42 -4.32 42 -5 42 C-4.42415568 39.61435923 -3.77772405 37.33317216 -3 35 C-2.34 35 -1.68 35 -1 35 C-1 34.34 -1 33.68 -1 33 C-2.11375 33.020625 -3.2275 33.04125 -4.375 33.0625 C-8 33 -8 33 -10 32 C-10 31.01 -10 30.02 -10 29 C-7.03 29.33 -4.06 29.66 -1 30 C-1 29.01 -1 28.02 -1 27 C-2.670625 26.814375 -2.670625 26.814375 -4.375 26.625 C-8 26 -8 26 -10 24 C-10 22.68 -10 21.36 -10 20 C-11.65 20 -13.3 20 -15 20 C-15 24.29 -15 28.58 -15 33 C-16.32 33 -17.64 33 -19 33 C-19 28.71 -19 24.42 -19 20 C-20.794375 20.2475 -20.794375 20.2475 -22.625 20.5 C-26.10548715 20.93970567 -29.48771488 21.08780713 -33 21 C-33 23.64 -33 26.28 -33 29 C-30.36 29 -27.72 29 -25 29 C-24.67 29.99 -24.34 30.98 -24 32 C-27.20841035 33.60420518 -30.5193987 33.47462745 -34 33 C-36.5 31.5 -36.5 31.5 -38 29 C-38.78550518 25.00701533 -38.60146332 22.04602317 -36.5625 18.5 C-33.2951148 16.58738427 -31.04336363 16.74740059 -27.328125 16.92578125 C-24.11497301 17.02821395 -21.16306436 16.53839393 -18 16 C-18 15.67 -18 15.34 -18 15 C-15.95920995 14.8031879 -13.91729993 14.61797169 -11.875 14.4375 C-10.73804687 14.33308594 -9.60109375 14.22867187 -8.4296875 14.12109375 C-5.11102007 14.00391984 -2.2437314 14.3344928 1 15 C1 14.01 1 13.02 1 12 C0.34 12 -0.32 12 -1 12 C-1.02687279 10.18757948 -1.04633715 8.37504767 -1.0625 6.5625 C-1.07410156 5.55316406 -1.08570313 4.54382813 -1.09765625 3.50390625 C-1 1 -1 1 0 0 Z M1 10 C1.33 10.66 1.66 11.32 2 12 C2.33 11.34 2.66 10.68 3 10 C2.34 10 1.68 10 1 10 Z " fill="#D22980" transform="translate(49,2)"/>
<path d="M0 0 C0.33 0 0.66 0 1 0 C1.56146794 3.50917465 2.00929261 6.75374575 1.875 10.3125 C1.91625 11.199375 1.9575 12.08625 2 13 C2.99 13.66 3.98 14.32 5 15 C5.4140625 17.2421875 5.4140625 17.2421875 5.625 19.875 C5.96995578 22.58757028 5.96995578 22.58757028 7 25 C9.28707946 26.57744359 11.35376156 27.37370953 14.00390625 28.18359375 C14.66261719 28.45300781 15.32132813 28.72242187 16 29 C17 32 17 32 15.8125 34.4375 C14.06020951 36.91487622 12.21684517 38.9360407 10 41 C11.66342837 42.66342837 13.7825709 42.36048097 16.0625 42.5625 C16.98160156 42.64628906 17.90070312 42.73007812 18.84765625 42.81640625 C19.91306641 42.90728516 19.91306641 42.90728516 21 43 C21 43.33 21 43.66 21 44 C18.58303128 44.05411124 16.16728213 44.09372278 13.75 44.125 C13.06808594 44.14175781 12.38617188 44.15851562 11.68359375 44.17578125 C4.95989046 44.24105992 4.95989046 44.24105992 2 42 C-2.87114251 34.66185952 -1.09753266 22.36931955 -1.125 13.9375 C-1.12967285 12.91358154 -1.1343457 11.88966309 -1.13916016 10.8347168 C-1.13706543 9.86703369 -1.1349707 8.89935059 -1.1328125 7.90234375 C-1.13168457 7.03085693 -1.13055664 6.15937012 -1.12939453 5.26147461 C-1 3 -1 3 0 0 Z " fill="#9D32D8" transform="translate(6,8)"/>
<path d="M0 0 C1.06992187 0.01289063 2.13984375 0.02578125 3.2421875 0.0390625 C4.35335938 0.07257812 5.46453125 0.10609375 6.609375 0.140625 C7.73601563 0.15867187 8.86265625 0.17671875 10.0234375 0.1953125 C12.80294396 0.24242278 15.5807284 0.30819139 18.359375 0.390625 C18.359375 1.380625 18.359375 2.370625 18.359375 3.390625 C16.709375 3.390625 15.059375 3.390625 13.359375 3.390625 C13.359375 7.680625 13.359375 11.970625 13.359375 16.390625 C12.039375 16.390625 10.719375 16.390625 9.359375 16.390625 C9.359375 12.100625 9.359375 7.810625 9.359375 3.390625 C8.163125 3.555625 6.966875 3.720625 5.734375 3.890625 C2.25388785 4.33033067 -1.12833988 4.47843213 -4.640625 4.390625 C-4.640625 7.030625 -4.640625 9.670625 -4.640625 12.390625 C-2.000625 12.390625 0.639375 12.390625 3.359375 12.390625 C3.689375 13.380625 4.019375 14.370625 4.359375 15.390625 C1.15096465 16.99483018 -2.1600237 16.86525245 -5.640625 16.390625 C-8.140625 14.890625 -8.140625 14.890625 -9.640625 12.390625 C-10.18748719 9.61074221 -10.37053969 7.13853913 -9.640625 4.390625 C-6.6266033 0.6235357 -4.77711574 -0.10164076 0 0 Z " fill="#F6D0F7" transform="translate(20.640625,18.609375)"/>
<path d="M0 0 C1.93166016 0.01740234 1.93166016 0.01740234 3.90234375 0.03515625 C5.19269531 0.04417969 6.48304687 0.05320312 7.8125 0.0625 C8.81152344 0.07410156 9.81054688 0.08570312 10.83984375 0.09765625 C10.90042969 1.01289063 10.96101563 1.928125 11.0234375 2.87109375 C11.10722656 4.05960938 11.19101562 5.248125 11.27734375 6.47265625 C11.35855469 7.65601563 11.43976562 8.839375 11.5234375 10.05859375 C11.65069311 13.01284526 11.65069311 13.01284526 12.83984375 15.09765625 C11.84984375 15.42765625 10.85984375 15.75765625 9.83984375 16.09765625 C9.17984375 16.75765625 8.51984375 17.41765625 7.83984375 18.09765625 C2.83984375 16.09765625 2.83984375 16.09765625 -2.16015625 14.09765625 C-2.16015625 13.76765625 -2.16015625 13.43765625 -2.16015625 13.09765625 C0.47984375 12.76765625 3.11984375 12.43765625 5.83984375 12.09765625 C5.50984375 11.43765625 5.17984375 10.77765625 4.83984375 10.09765625 C3.54046875 10.11828125 2.24109375 10.13890625 0.90234375 10.16015625 C-0.45181258 10.18165079 -1.80771708 10.16913824 -3.16015625 10.09765625 C-4.16015625 9.09765625 -4.16015625 9.09765625 -4.29296875 7.28515625 C-4.29039063 6.56328125 -4.2878125 5.84140625 -4.28515625 5.09765625 C-4.28773437 4.37578125 -4.2903125 3.65390625 -4.29296875 2.91015625 C-4.05785518 -0.29845253 -3.28213777 0.10142577 0 0 Z " fill="#AB37B4" transform="translate(19.16015625,21.90234375)"/>
<path d="M0 0 C1.65 0 3.3 0 5 0 C5.185625 0.78375 5.37125 1.5675 5.5625 2.375 C6.83961627 5.39376342 6.83961627 5.39376342 10.625 6.3125 C11.73875 6.539375 12.8525 6.76625 14 7 C14 7.99 14 8.98 14 10 C11.03 9.67 8.06 9.34 5 9 C5 9.99 5 10.98 5 12 C7.97 12.33 10.94 12.66 14 13 C13.67 14.32 13.34 15.64 13 17 C12.01 17.33 11.02 17.66 10 18 C8.30712215 17.04504326 6.64142963 16.0409066 5 15 C2.90584196 14.20376178 2.90584196 14.20376178 1 14 C0.01 14.495 0.01 14.495 -1 15 C-0.67 10.05 -0.34 5.1 0 0 Z " fill="#B9319C" transform="translate(34,22)"/>
<path d="M0 0 C0.70125 -0.01675781 1.4025 -0.03351562 2.125 -0.05078125 C2.74375 0.06910156 3.3625 0.18898438 4 0.3125 C4.66 1.3025 5.32 2.2925 6 3.3125 C2.52176885 4.47191038 0.54104422 4.02070884 -3 3.3125 C-3 4.3025 -3 5.2925 -3 6.3125 C-2.43410156 6.44527344 -1.86820313 6.57804687 -1.28515625 6.71484375 C-0.55167969 6.89144531 0.18179688 7.06804688 0.9375 7.25 C2.03384766 7.51103516 2.03384766 7.51103516 3.15234375 7.77734375 C5 8.3125 5 8.3125 6 9.3125 C6.1875 11.75 6.1875 11.75 6 14.3125 C4 16.3125 4 16.3125 1.90625 16.54296875 C1.1121875 16.52878906 0.318125 16.51460937 -0.5 16.5 C-1.2940625 16.49355469 -2.088125 16.48710938 -2.90625 16.48046875 C-5 16.3125 -5 16.3125 -7 15.3125 C-7 14.3225 -7 13.3325 -7 12.3125 C-4.03 12.6425 -1.06 12.9725 2 13.3125 C2 12.3225 2 11.3325 2 10.3125 C0.88625 10.18875 -0.2275 10.065 -1.375 9.9375 C-5 9.3125 -5 9.3125 -7 7.3125 C-6.49698623 2.28236232 -5.19858157 0.02866865 0 0 Z " fill="#FDE5F9" transform="translate(46,18.6875)"/>
<path d="M0 0 C0.33 0 0.66 0 1 0 C1.08139142 2.39652528 1.14067009 4.79025436 1.1875 7.1875 C1.21263672 7.86103516 1.23777344 8.53457031 1.26367188 9.22851562 C1.3284946 13.65806882 0.8686584 16.55627255 -2 20 C-2.99 20 -3.98 20 -5 20 C-5.12375 19.030625 -5.2475 18.06125 -5.375 17.0625 C-5.684375 15.5465625 -5.684375 15.5465625 -6 14 C-6.66 13.67 -7.32 13.34 -8 13 C-8 13.66 -8 14.32 -8 15 C-8.66 15 -9.32 15 -10 15 C-9.42415568 12.61435923 -8.77772405 10.33317216 -8 8 C-7.34 8 -6.68 8 -6 8 C-6 7.34 -6 6.68 -6 6 C-4.125 3.875 -4.125 3.875 -2 2 C-1.34 2 -0.68 2 0 2 C0 1.34 0 0.68 0 0 Z " fill="#D12981" transform="translate(54,29)"/>
<path d="M0 0 C0.33 0 0.66 0 1 0 C1.56146794 3.50917465 2.00929261 6.75374575 1.875 10.3125 C1.91625 11.199375 1.9575 12.08625 2 13 C2.99 13.66 3.98 14.32 5 15 C5.1875 18.125 5.1875 18.125 5 21 C4.67 19.68 4.34 18.36 4 17 C3.01 17 2.02 17 1 17 C1.02290013 20.23071384 1.10033517 23.45793134 1.1875 26.6875 C1.19330078 27.59951172 1.19910156 28.51152344 1.20507812 29.45117188 C1.35010096 33.88242526 1.56334869 36.35479881 4.09375 40.09375 C7.67795839 42.44468239 10.05075001 42.69301168 14.3125 42.8125 C16.19388672 42.88404297 16.19388672 42.88404297 18.11328125 42.95703125 C19.06589844 42.97121094 20.01851562 42.98539063 21 43 C21 43.33 21 43.66 21 44 C18.58303128 44.05411124 16.16728213 44.09372278 13.75 44.125 C13.06808594 44.14175781 12.38617188 44.15851562 11.68359375 44.17578125 C4.95989046 44.24105992 4.95989046 44.24105992 2 42 C-2.87114251 34.66185952 -1.09753266 22.36931955 -1.125 13.9375 C-1.12967285 12.91358154 -1.1343457 11.88966309 -1.13916016 10.8347168 C-1.13706543 9.86703369 -1.1349707 8.89935059 -1.1328125 7.90234375 C-1.13168457 7.03085693 -1.13055664 6.15937012 -1.12939453 5.26147461 C-1 3 -1 3 0 0 Z " fill="#B459F9" transform="translate(6,8)"/>
<path d="M0 0 C0.66 0.33 1.32 0.66 2 1 C3.20915439 4.62746318 3.20026375 7.99371578 3.23828125 11.7734375 C3.25038887 12.91457504 3.25038887 12.91457504 3.26274109 14.07876587 C3.27656024 15.68757868 3.28729209 17.29642054 3.29516602 18.90527344 C3.31238974 21.35929081 3.35629371 23.81196404 3.40039062 26.265625 C3.41051741 27.83071929 3.41903356 29.395825 3.42578125 30.9609375 C3.44328934 31.69130219 3.46079742 32.42166687 3.47883606 33.17416382 C3.45806873 38.07689668 2.43730984 40.52059023 -1 44 C-1.66 43.67 -2.32 43.34 -3 43 C-1.25 39.125 -1.25 39.125 1 38 C0.88655624 35.8535247 0.75893655 33.70779408 0.625 31.5625 C0.55539063 30.36753906 0.48578125 29.17257813 0.4140625 27.94140625 C0.27742188 26.97074219 0.14078125 26.00007813 0 25 C-0.66 24.67 -1.32 24.34 -2 24 C-1.67 23.34 -1.34 22.68 -1 22 C-0.34 22 0.32 22 1 22 C0.67 14.74 0.34 7.48 0 0 Z " fill="#DB61C7" transform="translate(54,6)"/>
<path d="M0 0 C1.23556641 0.01740234 1.23556641 0.01740234 2.49609375 0.03515625 C3.32238281 0.04417969 4.14867187 0.05320312 5 0.0625 C5.63808594 0.07410156 6.27617187 0.08570312 6.93359375 0.09765625 C7.93359375 3.09765625 7.93359375 3.09765625 7.15625 4.921875 C6.08203125 6.64713542 5.0078125 8.37239583 3.93359375 10.09765625 C1.93404629 10.14019981 -0.06682261 10.13846408 -2.06640625 10.09765625 C-3.06640625 9.09765625 -3.06640625 9.09765625 -3.19921875 7.28515625 C-3.19664063 6.56328125 -3.1940625 5.84140625 -3.19140625 5.09765625 C-3.19398437 4.37578125 -3.1965625 3.65390625 -3.19921875 2.91015625 C-3.00640394 0.2788012 -2.63137052 0.12435588 0 0 Z " fill="#A632C4" transform="translate(18.06640625,21.90234375)"/>
<path d="M0 0 C3.96 0 7.92 0 12 0 C10.68 0.33 9.36 0.66 8 1 C8 5.62 8 10.24 8 15 C7.01 15 6.02 15 5 15 C5 10.38 5 5.76 5 1 C3.35 1 1.7 1 0 1 C0 0.67 0 0.34 0 0 Z " fill="#FEE2FD" transform="translate(25,20)"/>
<path d="M0 0 C0.66 0.33 1.32 0.66 2 1 C2.125 3.375 2.125 3.375 2 6 C0 8 0 8 -2.09375 8.23046875 C-2.8878125 8.21628906 -3.681875 8.20210937 -4.5 8.1875 C-5.69109375 8.17783203 -5.69109375 8.17783203 -6.90625 8.16796875 C-9 8 -9 8 -11 7 C-11 6.01 -11 5.02 -11 4 C-8.03 4.33 -5.06 4.66 -2 5 C-1.67 4.34 -1.34 3.68 -1 3 C-0.67 2.67 -0.34 2.34 0 2 C0 1.34 0 0.68 0 0 Z " fill="#FDD6F4" transform="translate(50,27)"/>
<path d="M0 0 C1.32 0.66 2.64 1.32 4 2 C-0.43076923 7.78461538 -0.43076923 7.78461538 -3.3125 8.875 C-4.1478125 8.936875 -4.1478125 8.936875 -5 9 C-5.33 6.36 -5.66 3.72 -6 1 C-5.01 1.33 -4.02 1.66 -3 2 C-2.01 1.34 -1.02 0.68 0 0 Z " fill="#9C37D3" transform="translate(13,15)"/>
<path d="M0 0 C0 0.66 0 1.32 0 2 C-2.97851562 2.29296875 -2.97851562 2.29296875 -5.95703125 2.5859375 C-8.29988142 2.92665391 -8.29988142 2.92665391 -11 5 C-11.33 4.01 -11.66 3.02 -12 2 C-14.31 1.67 -16.62 1.34 -19 1 C-19 0.67 -19 0.34 -19 0 C-12.68386851 -1.29561672 -6.24979855 -1.78161678 0 0 Z " fill="#B73686" transform="translate(50,17)"/>
<path d="M0 0 C0.33 0 0.66 0 1 0 C1.56146794 3.50917465 2.00929261 6.75374575 1.875 10.3125 C1.91625 11.199375 1.9575 12.08625 2 13 C2.99 13.66 3.98 14.32 5 15 C5.1875 18.125 5.1875 18.125 5 21 C4.67 19.68 4.34 18.36 4 17 C3.01 17 2.02 17 1 17 C1 16.01 1 15.02 1 14 C0.34 14 -0.32 14 -1 14 C-1.02705729 12.22925083 -1.04642195 10.45838289 -1.0625 8.6875 C-1.07410156 7.70136719 -1.08570313 6.71523437 -1.09765625 5.69921875 C-1 3 -1 3 0 0 Z " fill="#AF60EC" transform="translate(6,8)"/>
<path d="M0 0 C0.82218018 0.09949951 1.64436035 0.19899902 2.49145508 0.30151367 C3.38413086 0.40141602 4.27680664 0.50131836 5.1965332 0.60424805 C6.12530273 0.72477539 7.05407227 0.84530273 8.01098633 0.96948242 C8.95135742 1.0784082 9.89172852 1.18733398 10.8605957 1.29956055 C13.18370494 1.5707865 15.50393092 1.8571027 17.82348633 2.15698242 C17.82348633 2.48698242 17.82348633 2.81698242 17.82348633 3.15698242 C2.07861161 4.48955645 2.07861161 4.48955645 -5.17651367 3.15698242 C-3.4959149 1.05801677 -2.74042678 0.19765501 0 0 Z " fill="#9A3EA6" transform="translate(20.176513671875,15.843017578125)"/>
<path d="M0 0 C0.70125 -0.01675781 1.4025 -0.03351562 2.125 -0.05078125 C2.74375 0.06910156 3.3625 0.18898438 4 0.3125 C4.66 1.3025 5.32 2.2925 6 3.3125 C2.67576157 4.42057948 1.32809422 4.08052174 -2 3.3125 C-2.66 3.3125 -3.32 3.3125 -4 3.3125 C-5.63676257 5.2725281 -5.63676257 5.2725281 -7 7.3125 C-6.21116524 2.31654654 -5.34468357 0.02947436 0 0 Z " fill="#FACAEF" transform="translate(46,18.6875)"/>
<path d="M0 0 C4.455 0.99 4.455 0.99 9 2 C9 2.99 9 3.98 9 5 C6.125 5.125 6.125 5.125 3 5 C1 3 1 3 0 0 Z " fill="#B8398F" transform="translate(39,27)"/>
<path d="M0 0 C1.2065625 0.0309375 1.2065625 0.0309375 2.4375 0.0625 C1.4475 0.3925 0.4575 0.7225 -0.5625 1.0625 C-0.5625 1.7225 -0.5625 2.3825 -0.5625 3.0625 C-1.2225 3.0625 -1.8825 3.0625 -2.5625 3.0625 C-2.5625 4.7125 -2.5625 6.3625 -2.5625 8.0625 C-1.5725 7.7325 -0.5825 7.4025 0.4375 7.0625 C1.4275 8.0525 2.4175 9.0425 3.4375 10.0625 C1.43795254 10.10504356 -0.56291636 10.10330783 -2.5625 10.0625 C-3.5625 9.0625 -3.5625 9.0625 -3.6953125 7.25 C-3.69273438 6.528125 -3.69015625 5.80625 -3.6875 5.0625 C-3.69007812 4.340625 -3.69265625 3.61875 -3.6953125 2.875 C-3.48140927 -0.04414996 -2.93781989 0.07165414 0 0 Z " fill="#9B44BC" transform="translate(18.5625,21.9375)"/>
<path d="M0 0 C1.98 0 3.96 0 6 0 C6.66 1.65 7.32 3.3 8 5 C5.36 4.34 2.72 3.68 0 3 C0 2.01 0 1.02 0 0 Z " fill="#BE3C87" transform="translate(43,22)"/>
<path d="M0 0 C3.96 0 7.92 0 12 0 C10.68 0.33 9.36 0.66 8 1 C7.67 3.31 7.34 5.62 7 8 C6.67 8 6.34 8 6 8 C5.67 6.02 5.34 4.04 5 2 C3.35 1.67 1.7 1.34 0 1 C0 0.67 0 0.34 0 0 Z " fill="#FEF5FF" transform="translate(25,20)"/>
<path d="M0 0 C1.134375 0.020625 2.26875 0.04125 3.4375 0.0625 C3.125 2 3.125 2 2.4375 4.0625 C1.4475 4.3925 0.4575 4.7225 -0.5625 5.0625 C-1.8825 3.7425 -3.2025 2.4225 -4.5625 1.0625 C-3.5625 0.0625 -3.5625 0.0625 0 0 Z " fill="#C23E91" transform="translate(44.5625,34.9375)"/>
<path d="M0 0 C0.66 0.33 1.32 0.66 2 1 C2.99 1 3.98 1 5 1 C4.34 2.65 3.68 4.3 3 6 C2.21625 5.814375 1.4325 5.62875 0.625 5.4375 C-1.97089775 4.74037734 -1.97089775 4.74037734 -4 6 C-2.84826645 3.53199953 -1.95216435 1.95216435 0 0 Z " fill="#B356E6" transform="translate(11,2)"/>
<path d="M0 0 C0.33 0 0.66 0 1 0 C1 2.97 1 5.94 1 9 C0.01 8.67 -0.98 8.34 -2 8 C-2.125 5.125 -2.125 5.125 -2 2 C-1.34 1.34 -0.68 0.68 0 0 Z " fill="#FCEEFF" transform="translate(13,23)"/>
<path d="M0 0 C6.27 0 12.54 0 19 0 C19 0.33 19 0.66 19 1 C16.22922802 1.16774403 13.45839073 1.33423936 10.6875 1.5 C9.50897461 1.57154297 9.50897461 1.57154297 8.30664062 1.64453125 C7.1706543 1.71220703 7.1706543 1.71220703 6.01171875 1.78125 C5.31522217 1.82314453 4.61872559 1.86503906 3.90112305 1.90820312 C2.26903034 1.98700971 0.63399421 2 -1 2 C-0.67 1.34 -0.34 0.68 0 0 Z " fill="#9B36CB" transform="translate(13,2)"/>
<path d="M0 0 C0.185625 0.9590625 0.185625 0.9590625 0.375 1.9375 C0.684375 2.9584375 0.684375 2.9584375 1 4 C1.66 4.33 2.32 4.66 3 5 C2.01 5.99 1.02 6.98 0 8 C-1.5 6.625 -1.5 6.625 -3 5 C-3 3 -3 3 -1.5 1.375 C-1.005 0.92125 -0.51 0.4675 0 0 Z " fill="#B22DBD" transform="translate(27,32)"/>
<path d="M0 0 C0.66 0.66 1.32 1.32 2 2 C-1.08888522 4.05925681 -1.70935927 4.2390374 -5.1875 4.125 C-7.0746875 4.063125 -7.0746875 4.063125 -9 4 C-9 3.01 -9 2.02 -9 1 C-6.03 1.33 -3.06 1.66 0 2 C0 1.34 0 0.68 0 0 Z " fill="#F1C0E5" transform="translate(48,30)"/>
<path d="M0 0 C2.475 0.99 2.475 0.99 5 2 C4.67 2.99 4.34 3.98 4 5 C2.35 4.67 0.7 4.34 -1 4 C-0.67 2.68 -0.34 1.36 0 0 Z " fill="#D439A0" transform="translate(49,2)"/>
<path d="M0 0 C-0.66 1.65 -1.32 3.3 -2 5 C-2.66 4.01 -3.32 3.02 -4 2 C-7.56769552 1.26393501 -7.56769552 1.26393501 -11 1 C-11 0.67 -11 0.34 -11 0 C-6.98195309 -0.84098656 -3.98196457 -1.05404945 0 0 Z " fill="#BB39A0" transform="translate(42,17)"/>
<path d="M0 0 C2.64 0.99 5.28 1.98 8 3 C8 3.33 8 3.66 8 4 C5.36 4.33 2.72 4.66 0 5 C0 3.35 0 1.7 0 0 Z " fill="#943DC4" transform="translate(12,33)"/>
<path d="M0 0 C0.99 0.33 1.98 0.66 3 1 C2.67 3.64 2.34 6.28 2 9 C1.67 9 1.34 9 1 9 C0.67 7.35 0.34 5.7 0 4 C-0.99 4.495 -0.99 4.495 -2 5 C-1.34 3.35 -0.68 1.7 0 0 Z " fill="#EEC8F9" transform="translate(13,20)"/>
<path d="M0 0 C0.66 0 1.32 0 2 0 C2.625 2.875 2.625 2.875 3 6 C2.34 6.66 1.68 7.32 1 8 C0.67 5.36 0.34 2.72 0 0 Z " fill="#9832E4" transform="translate(7,16)"/>
</svg>
